<svg xmlns="http://www.w3.org/2000/svg" viewBox="0 0 750 500"><rect width="750" height="500" fill="#feea28"/><path fill="#000" d="M494 44 470 50 451 68 433 133 423 147 445 143 444 169 453 185 453 159 468 125 471 154 482 132 484 108 507 96 498 88 500 78 514 74 523 80 525 103 487 161 479 193 486 220 525 271 519 286 493 272 431 189 391 165 419 159 413 147 427 133 418 138 413 133 423 128 416 125 414 104 427 87 414 89 422 70 419 51 404 58 358 59 325 74 323 104 336 109 335 126 317 137 304 126 292 127 284 145 270 133 261 114 261 100 272 84 269 79 252 70 245 80 243 66 225 65 218 71 221 82 210 75 202 83 200 97 215 103 201 107 198 121 206 128 222 123 220 134 206 138 226 146 221 155 210 155 222 163 209 164 211 173 223 180 237 176 233 187 253 183 242 210 231 209 229 197 225 201 224 222 248 230 285 208 289 218 250 246 233 247 233 237 226 234 207 243 208 256 195 254 193 275 211 274 197 284 207 299 217 301 225 282 228 297 242 297 252 277 258 294 268 272 272 289 285 264 288 283 301 252 305 268 311 248 316 261 321 242 327 256 334 230 339 241 349 212 391 226 404 239 375 246 344 273 304 279 268 312 249 309 247 320 254 328 268 329 289 320 307 342 301 355 288 361 277 361 275 350 264 349 253 359 261 372 240 373 242 395 258 392 249 403 256 413 267 414 274 401 281 415 292 412 299 391 306 404 309 382 313 400 318 378 323 395 331 369 336 387 344 356 354 360 350 377 368 351 349 324 347 311 366 301 399 303 408 343 400 347 393 337 390 345 400 361 415 363 430 353 472 350 472 369 462 384 452 387 441 374 426 386 424 396 434 400 415 406 422 427 439 416 436 429 449 436 459 435 463 420 470 435 485 430 493 394 505 410 509 390 518 405 518 373 528 391 526 349 533 352 540 374 544 344 539 335 517 334 469 308 472 275 503 307 544 318 556 345 555 311 543 300 554 284 556 267 538 230 545 217 559 221 559 217 553 207 539 204 523 224 519 209 531 187 555 187 533 176 508 187 554 141 566 98 543 135 512 158 537 111 542 82 525 54z"/><g fill="#ff0000"><ellipse cx="256" cy="419" rx="5" ry="10"/><ellipse cx="445" cy="442" rx="6" ry="11"/><ellipse cx="476" cy="439" rx="7" ry="8"/><ellipse cx="426" cy="380" rx="9" ry="8"/><ellipse cx="285" cy="419" rx="8" ry="8"/><ellipse cx="200" cy="80" rx="8" ry="7"/><ellipse cx="233" cy="386" rx="9" ry="7"/><ellipse cx="213" cy="234" rx="8" ry="7"/><ellipse cx="257" cy="348" rx="10" ry="7"/><ellipse cx="291" cy="118" rx="7" ry="13"/><ellipse cx="262" cy="69" rx="5" ry="9"/><ellipse cx="228" cy="60" rx="8" ry="8"/><ellipse cx="195" cy="118" rx="8" ry="8"/><ellipse cx="185" cy="266" rx="9" ry="6"/><ellipse cx="199" cy="298" rx="6" ry="10"/><ellipse cx="233" cy="302" rx="9" ry="6"/><ellipse cx="412" cy="419" rx="9" ry="10"/></g></svg>
