<svg xmlns="http://www.w3.org/2000/svg" viewBox="0 0 750 500"><rect width="750" height="500" fill="#fff"/><path fill="#0099cc" d="M0 0H195L750 370V500H555L0 130z"/><path fill="#005bbf" d="M300 160h150v104q0 62 -75 84q-75 -22 -75 -84z"/><g fill="#c8b100"><path d="M340 230h70q0 34 -27 40l0 20q14 4 16 18h-48q2 -14 16 -18l0 -20q-27 -6 -27 -40z"/><rect x="345" y="306" width="60" height="15"/></g><circle cx="375" cy="212" r="20" fill="#fff"/><g fill="#fff"><path d="M328 176h12v10h10v12h-10v10h-12v-10h-10v-12h10z"/><path d="M410 176h12v10h10v12h-10v10h-12v-10h-10v-12h10z"/></g></svg>
