<svg xmlns="http://www.w3.org/2000/svg" viewBox="0 0 750 500"><rect width="750" height="500" fill="#fff"/><rect width="187.5" height="500" fill="#da121a"/><rect x="562.5" width="187.5" height="500" fill="#da121a"/><g fill="#eac102"><rect x="315" y="150" width="120" height="18"/><circle cx="322" cy="138" r="8"/><circle cx="349" cy="132" r="8"/><circle cx="375" cy="130" r="8"/><circle cx="401" cy="132" r="8"/><circle cx="428" cy="138" r="8"/></g><path fill="#da121a" d="M300 176h150v104q0 60 -75 80q-75 -20 -75 -80z"/><g fill="#eac102"><rect x="330" y="200" width="90" height="16"/><path d="M334 216h82q0 38 -41 38q-41 0 -41 -38z"/><rect x="330" y="278" width="90" height="16"/><path d="M334 294h82q0 38 -41 38q-41 0 -41 -38z"/></g></svg>
