<svg xmlns="http://www.w3.org/2000/svg" viewBox="0 0 750 500"><defs><path id="leaf" d="M0 -4C-5 -18 -22 -14 -22 0C-22 12 -10 18 0 26C10 18 22 12 22 0C22 -14 5 -18 0 -4z"/></defs><rect width="750" height="500" fill="#244994"/><g fill="#fff"><path d="M0 214V357L214 500H429z"/><path d="M107 0H0V71L643 500H750V429z"/><path d="M321 0H536L750 143V286z"/></g><g fill="#e72326"><use href="#leaf" transform="translate(214 138) rotate(-38) scale(2.2)"/><use href="#leaf" transform="translate(374 246) rotate(-38) scale(2.2)"/><use href="#leaf" transform="translate(535 353) rotate(-38) scale(2.2)"/><use href="#leaf" transform="translate(128 350) rotate(-38) scale(2.2)"/><use href="#leaf" transform="translate(250 430) rotate(-38) scale(2.2)"/><use href="#leaf" transform="translate(541 70) rotate(-38) scale(2.2)"/><use href="#leaf" transform="translate(653 148) rotate(-38) scale(2.2)"/></g></svg>
