<svg xmlns="http://www.w3.org/2000/svg" viewBox="0 0 750 500"><rect width="750" height="500" fill="#fff"/><g fill="#b31942"><rect width="750" height="38.5"/><rect y="77" width="750" height="38.5"/><rect y="154" width="750" height="38.5"/><rect y="231" width="750" height="38.5"/><rect y="308" width="750" height="38.5"/><rect y="385" width="750" height="38.5"/><rect y="462" width="750" height="38"/></g><rect width="300" height="269" fill="#0a3161"/><g fill="#fff"><circle cx="50" cy="45" r="13"/><circle cx="150" cy="45" r="13"/><circle cx="250" cy="45" r="13"/><circle cx="100" cy="90" r="13"/><circle cx="200" cy="90" r="13"/><circle cx="50" cy="135" r="13"/><circle cx="150" cy="135" r="13"/><circle cx="250" cy="135" r="13"/><circle cx="100" cy="180" r="13"/><circle cx="200" cy="180" r="13"/><circle cx="50" cy="225" r="13"/><circle cx="150" cy="225" r="13"/><circle cx="250" cy="225" r="13"/></g></svg>
